<svg width="1207" height="1442" viewBox="0 0 1207 1442" fill="none" xmlns="http://www.w3.org/2000/svg">
<path opacity="0.8" d="M244.371 190.103C155.709 125.301 173.113 48.7602 192.899 18.5898L464.836 -452.419L2085.5 483.271L1813.56 954.28C1797.33 986.5 1739.74 1039.84 1639.29 995.46C1513.73 939.982 1491.13 986.492 1452.16 1012.2C1413.18 1037.91 1363.55 1057.46 1278.97 970.347C1194.39 883.229 1100.89 816.484 985.991 840.897C894.072 860.427 831.964 832.792 810.436 820.364C788.909 807.935 733.923 767.964 704.877 678.595C668.57 566.884 564.015 519.281 446.279 489.591C328.543 459.901 320.668 407.144 323.442 360.535C326.216 313.926 355.198 271.105 244.371 190.103Z" fill="url(#paint0_linear_157_39)"/>
<path d="M339.563 89.7275C277.034 17.3371 306.823 -44.2049 329.533 -65.9271L652.73 -412.294L1844.52 699.773L1521.32 1046.14C1501.22 1070.3 1441.89 1104.27 1365.35 1046.89C1269.67 975.175 1241.37 1010.21 1203.25 1024.38C1165.13 1038.55 1119.18 1045.41 1064.49 954.883C1009.8 864.355 943.549 789.365 841.25 787.539C759.411 786.078 712.124 750.44 696.294 735.668C680.463 720.897 641.641 676.187 634.526 594.644C625.633 492.717 546.243 431.803 452.151 383.506C358.059 335.208 361.728 288.891 373.227 249.88C384.726 210.869 417.724 180.215 339.563 89.7275Z" fill="black"/>
<path d="M339.563 89.7275C277.034 17.3371 306.823 -44.2049 329.533 -65.9271L652.73 -412.294L1844.52 699.773L1521.32 1046.14C1501.22 1070.3 1441.89 1104.27 1365.35 1046.89C1269.67 975.175 1241.37 1010.21 1203.25 1024.38C1165.13 1038.55 1119.18 1045.41 1064.49 954.883C1009.8 864.355 943.549 789.365 841.25 787.539C759.411 786.078 712.124 750.44 696.294 735.668C680.463 720.897 641.641 676.187 634.526 594.644C625.633 492.717 546.243 431.803 452.151 383.506C358.059 335.208 361.728 288.891 373.227 249.88C384.726 210.869 417.724 180.215 339.563 89.7275Z" fill="url(#paint1_linear_157_39)"/>
<path d="M426.13 -444.048C401.308 -536.428 454.898 -578.889 484.795 -588.572L926.465 -759.902L1515.98 759.812L1074.31 931.141C1045.7 944.152 977.5 948.937 933.532 863.984C878.571 757.792 837.85 777.035 797.36 773.213C756.869 769.391 712.506 755.584 702.635 650.282C692.763 544.98 665.717 448.639 574.394 402.503C501.336 365.594 474.255 312.937 466.425 292.751C458.594 272.564 443.081 215.42 472.139 138.899C508.461 43.2485 463.464 -46.1303 399.743 -130.543C336.021 -214.956 359.469 -255.068 386.79 -285.194C414.111 -315.321 457.157 -328.573 426.13 -444.048Z" fill="black"/>
<path d="M426.13 -444.048C401.308 -536.428 454.898 -578.889 484.795 -588.572L926.465 -759.902L1515.98 759.812L1074.31 931.141C1045.7 944.152 977.5 948.937 933.532 863.984C878.571 757.792 837.85 777.035 797.36 773.213C756.869 769.391 712.506 755.584 702.635 650.282C692.763 544.98 665.717 448.639 574.394 402.503C501.336 365.594 474.255 312.937 466.425 292.751C458.594 272.564 443.081 215.42 472.139 138.899C508.461 43.2485 463.464 -46.1303 399.743 -130.543C336.021 -214.956 359.469 -255.068 386.79 -285.194C414.111 -315.321 457.157 -328.573 426.13 -444.048Z" fill="url(#paint2_linear_157_39)"/>
<path d="M599.019 -30.0204C560.36 -117.517 606.824 -167.675 634.889 -181.817L1045.16 -418.685L1860.18 992.978L1740.7 1120.8C1714.42 1138.04 1647.75 1153.2 1591.3 1075.97C1520.75 979.432 1483.45 1004.68 1442.85 1007.09C1402.25 1009.51 1119.16 1075.46 1039.65 1001.87C962.033 930.03 972.326 815.517 875.021 783.892C797.177 758.592 762.361 710.697 751.536 691.946C740.71 673.195 716.639 619.095 733.65 539.031C754.915 438.95 696.777 357.505 620.894 283.832C545.011 210.159 562.048 166.932 584.439 132.981C606.831 99.0299 647.343 79.3505 599.019 -30.0204Z" fill="black"/>
<path d="M599.019 -30.0204C560.36 -117.517 606.824 -167.675 634.889 -181.817L1045.16 -418.685L1860.18 992.978L1740.7 1120.8C1714.42 1138.04 1647.75 1153.2 1591.3 1075.97C1520.75 979.432 1483.45 1004.68 1442.85 1007.09C1402.25 1009.51 1119.16 1075.46 1039.65 1001.87C962.033 930.03 972.326 815.517 875.021 783.892C797.177 758.592 762.361 710.697 751.536 691.946C740.71 673.195 716.639 619.095 733.65 539.031C754.915 438.95 696.777 357.505 620.894 283.832C545.011 210.159 562.048 166.932 584.439 132.981C606.831 99.0299 647.343 79.3505 599.019 -30.0204Z" fill="url(#paint3_linear_157_39)"/>
<defs>
<linearGradient id="paint0_linear_157_39" x1="220.633" y1="60.6214" x2="1149.33" y2="1181.24" gradientUnits="userSpaceOnUse">
<stop stop-color="#401F59"/>
<stop offset="0.5" stop-color="#3B1F5A"/>
<stop offset="1" stop-color="#25203F"/>
</linearGradient>
<linearGradient id="paint1_linear_157_39" x1="-254.467" y1="-260.961" x2="1192.97" y2="906.007" gradientUnits="userSpaceOnUse">
<stop stop-color="#7A4B77"/>
<stop offset="0.505208" stop-color="#60295C"/>
<stop offset="1" stop-color="#683352"/>
</linearGradient>
<linearGradient id="paint2_linear_157_39" x1="511.578" y1="-515.233" x2="1001.86" y2="1309.63" gradientUnits="userSpaceOnUse">
<stop stop-color="#9D226C"/>
<stop offset="0.505208" stop-color="#AB5C7E"/>
<stop offset="1" stop-color="#7E4E7B"/>
</linearGradient>
<linearGradient id="paint3_linear_157_39" x1="1009.12" y1="-398.003" x2="1217.13" y2="1578.1" gradientUnits="userSpaceOnUse">
<stop stop-color="#B86080"/>
<stop offset="0.505208" stop-color="#CF608D"/>
<stop offset="1" stop-color="#EF7897"/>
</linearGradient>
</defs>
</svg>
